<?xml version="1.0" encoding="utf-8"?>
<!-- Generator: Adobe Illustrator 22.0.0, SVG Export Plug-In . SVG Version: 6.00 Build 0)  -->
<svg version="1.1" xmlns="http://www.w3.org/2000/svg" xmlns:xlink="http://www.w3.org/1999/xlink" x="0px" y="0px"
	 viewBox="0 0 500 500" style="enable-background:new 0 0 500 500;" xml:space="preserve">
<style type="text/css">
	.st0{fill:#A7A9AC;}
	.st1{fill:none;stroke:#FFFFFF;stroke-width:3;stroke-linecap:round;stroke-linejoin:round;stroke-miterlimit:10;}
	.st2{fill:#FFFFFF;}
	.st3{fill:none;stroke:#939598;stroke-width:2;stroke-linecap:round;stroke-linejoin:round;stroke-miterlimit:10;}
	.st4{fill:none;stroke:#FFFFFF;stroke-width:3;stroke-miterlimit:10;}
	.st5{display:none;}
	.st6{display:inline;fill:#414042;}
</style>
<g id="Layer_3">
	<rect x="-15" y="-37" class="st0" width="566" height="597"/>
</g>
<g id="Layer_1">
	<g>
		<path class="st1" d="M334.1,280.5c0,0,1.9,5,2.9,8s2.3,5.7,2.3,5.7s0,3-1.3,6.7c-1.3,3.7-0.3,3,4,3.3c4.3,0.3,8.7,2.3,10.3-1.3
			c1.7-3.7-1-3-1-6.7c0-3.7,0.6-10.1-0.8-15.1"/>
		<path class="st1" d="M254.6,273.4c0,1.5,3.4,12.1,3.4,12.1c-1.7,6-4.7,14.7-6.3,16.3c-1.7,1.7-4,4.7-2.7,4.7s6.9,0,10,0
			c5.3-0.1,5.3-4.1,7.3-9.1s4-14,3.8-16.8"/>
		<path class="st1" d="M330.8,279.9c7.2,0.7,13.5,1.1,19.2,0.6c11-1,13-2.3,20.7,1c7.7,3.3,23,13.7,37,19s26,11.7,26,11.7
			s-0.2,3.7-7,5.3c-15,3.7-31.1,2.6-47.3,4.8c-12.3,1.7-14.3,3.2-14,4.2c0.3,1,22.3-1,35.7-1s33,3,40-5.3c7-8.3,8.3-11.7-8-22.7
			s-42-31.3-50-41.3c-8-10-32-42.3-58-43c-26-0.7-50.7,20.5-59.7,25.5s-19.3,14.2-31,10.8c-11.7-3.3-20.3-10.5-21.5-21.1
			c-1.2-11,3.2-12.9,3.2-12.9s2.3,1.7,4.3,1.7s3.1-0.6,4.8-0.3c1.7,0.3,2.7,0.3,3.7-1c1-1.3,1-1.3,1-1.3s2.3-4,0.7-5.3
			c-1.7-1.3-5.4-4.1-5.4-4.1s-3.3-2.3-4.7-2.3c-1.3,0-6.3,1.7-6.3,1.7c-3.3,3.3-15,7.7-11.3,26.7c3.7,19,15.5,35.7,33,38
			c15.3,2,24.6,4.6,37.9,13.1"/>
		<path class="st1" d="M289,280.8c6-1.5,10.2-4,20.7-3c1.6,0.2,3.2,0.3,4.8,0.5"/>
		<path class="st1" d="M270.8,280.7c0,0,7.8,3.2,6.2,9.5c-1.7,6.3-7,15.7-7,15.7s8.3,0.3,12.6,0c4.3-0.3,4.6-3.9,6.1-10
			c1.6-6.4,1.3-12.6-2-19.6c-3.3-7-0.7-10.7,0.7-14.3c1.3-3.7-8-13.3-8-13.3"/>
		<path class="st1" d="M321.3,224.2c-3,5.7-13,10.3-13,31.3c0,5,7,22.4,7,28.4c0,4.3,1.2,10.7,1.9,14.1c0.3,1.3-0.3,2.7-1.4,3.5
			c-2.6,2-7,5.5-4.8,5.7c3,0.3,11,0.3,13.3,0c0.8-0.1,1.7-0.2,2.6-0.3c2-0.2,3.4-2,3.1-4c-0.3-2.1,0.6-7.3,0.6-13.6
			c0-6.3,0-5.3,0-10c0-4.7,1-5.3,5.7-11.3c4.7-6,8-9.7,9.3-17c1.3-7.3,0.3-12.7,0.3-12.7"/>
	</g>
	<circle class="st2" cx="220.2" cy="208.6" r="1.8"/>
	<path class="st1" d="M47.6,244.5l-30.2-7.8l4.6-2.4l-6.5-6.9l7.2-3.4l-11-6.9l9.3-1.9L17.3,205l13.4,5.7l-1.2-14.8l6.1,11.3
		l8.6-15.6l-1.5,15.9c0,0,12.1-13.3,12.4-11.3c0.3,2,1.5,14.2,1.5,14.2l6.3,1.2l-4.6,10l8.6-4.2l0.2,5.7L47.6,244.5z"/>
	<path class="st1" d="M79.2,231.6l-0.2,33.9c-1.4-0.5-2.8-1.1-4.2-1.6c-6.6-2.5-14-5.2-16.6-7.5c-2.1-2.1-3.3-9.7-3-20.4"/>
	<path class="st1" d="M126.7,257.2l0.5,26.4c0,6.7-1.9,18-5.8,21.2c-3.4,2.8-7.5,5.4-11,7.4c-0.7-11.7-2.9-26.7-9-33.9
		c-1.9-2.2-4.3-4.2-7.5-6l0.3-39.6"/>
	<path class="st1" d="M167.9,285.1c-2.9,1.1-4.9,3.2-10.2,5.5c-5.5,2.4-11.9,3-16.3,3.1c0.7-4.8,0.8-8.7,0.8-10.2c0,0,0-0.1,0-0.1
		l-0.4-23.5"/>
	<path class="st1" d="M40.2,245.5c0.4,13.8,3,17.7,8.1,22.1c4.6,4.1,12.3,6.9,21.2,10.3c4.7,1.8,9.6,3.6,13.7,5.5
		c4.1,1.9,6,3.5,6.8,4.4c4.1,4.8,6.1,23.9,5.7,38.9c0,0.1,0,0.1,0,0.2l-0.4,52l15-4l0.4-46.1c3.9-1.9,13.1-6.7,20.3-12.6
		c2.5-2.1,4.4-4.7,5.9-7.7c0.9,0,2,0.1,3.3,0.1c5.8,0,15.1-0.7,23.5-4.3c4.3-1.9,6.3-1.9,8.7-4.2"/>
	<polyline class="st1" points="78.8,230.8 71.9,225.9 77.1,225.4 73.1,217.5 77.2,216.6 76.1,208.2 81.4,211.1 87.5,204 92.4,212.5 
		101.5,208.3 97.1,217 104.5,218 96.9,224.4 103,225.2 87.1,236.7 78.8,230.8 	"/>
	<polygon class="st1" points="133.8,261.2 113.7,250.6 119.3,246.4 114.9,235.1 120.6,235.6 119.8,224.6 131.2,231.5 138.7,218.4 
		140.7,231.9 155.3,227.1 153.5,240 167.2,241.3 152.5,249.8 154.3,258 	"/>
	<polygon class="st1" points="166.7,293.3 168.5,277 172.5,280.2 175.2,274.5 178.3,279.7 189.2,279.2 184.2,283.7 195.7,283.3 
		188.7,288.3 193.8,293 186.3,295.2 188.8,299.2 183,300.2 184.3,304 177,301.7 	"/>
	<path class="st1" d="M259.7,242.3c0,0-6-58,0-66.7c6-8.7,28.7-25.3,41.3-25.3s36.7,18,39.3,27.3c1,3.5,2.3,10.4,3.5,17.6
		c2,12.3,3.9,25.7,3.9,25.7"/>
	<path class="st1" d="M343.7,193.7c0,0,56.7-10,71.3-3.3c14.7,6.7,39.3,15.3,44,23.3c1.6,2.8,4.2,9.7,6.8,17.8"/>
	<path class="st1" d="M329,163c0,0-1.3-24,2.7-27.3c4-3.3,46-10.7,55.3-5.3c9.3,5.3,16.7,58,16.7,58"/>
	<path class="st1" d="M317.7,155c2.8,1.1,4.7,3.8,6.4,3.5c0,0,7.1,0.6,4.5-11.5c-1.6-7.8-5.8-7.3-10.9-2.6
		C314.5,147.2,311.6,152.7,317.7,155z"/>
	<path class="st1" d="M70.6,389c17.8-6.7,48.4-23.3,78.4-13.3c19,6.3,30.1,9.5,35.6,13.3"/>
	<path class="st1" d="M74.3,416.2"/>
	<path class="st1" d="M189,417.8"/>
	<path class="st1" d="M398.3,153.7c0,0,31.3,0,38.7,0.7c7.3,0.7,22,59.3,22,59.3"/>
	<path class="st1" d="M180,494.7l-22.3-20.3l-28-48.7c0,0,22,5.3,35.7,35.7C170.2,472.2,180,494.7,180,494.7z"/>
	<path class="st1" d="M181,493.5c0,0-9.7-18.2-15.7-37.5S148,390.7,148,390.7s29.3,69.3,33.3,82C185.3,485.3,181,493.5,181,493.5z"
		/>
	<path class="st1" d="M183.5,491.8c0,0,1.8-29.8,8.5-47.8s10.7-27.3,10.7-27.3s-2.7,34.7-5.3,52.7
		C194.7,487.3,183.5,491.8,183.5,491.8z"/>
	<path class="st1" d="M178,459.3c0,0-8-20-8.7-36c-0.7-16,2-34,2-34s4.7,21.3,8.7,35.3s8.7,29.3,8.7,29.3l-6,30.7L178,459.3z"/>
	<path class="st1" d="M197.3,469.3c0,0,10.7-20,14.7-25.3s16.7-18,16.7-18s-6,22-8.7,32s-10.7,22-10.7,22"/>
	<path class="st1" d="M180,494.7c14.5-3.1,50.7-8,54.7-10.7c6-4,20-18.7,20-18.7s-23.3,2.7-40,12c-16.7,9.3-24,10-24,10"/>
	<path class="st1" d="M157.7,474.3c0,0-6.3-9-16.3-11S98,460.7,98,460.7l78.3,34.4"/>
	<path class="st1" d="M142.3,271.7c0,0,24-14.7,32.7-19.3c8.7-4.7,29.3-12,29.3-12"/>
	<line class="st1" x1="185" y1="283" x2="229" y2="269"/>
	<path class="st1" d="M215.5,235.8l34.2-9.4c0,0,3.3-0.5,6.6,4.2c3.3,4.7,2.8,5.8,2.8,5.8"/>
	<line class="st1" x1="252.3" y1="295.7" x2="189" y2="295.7"/>
	<path class="st1" d="M125.7,279.7c0,0-10.7,6-9.3,11.3c1.3,5.3,7.3,8,7.3,8"/>
	<path class="st1" d="M428.3,153c0,0-23.3-94-28.7-98.7c-5.3-4.7-80-2-98-2S271,165,271,165"/>
	<path class="st1" d="M301,150.3c0,0,1.1-51.1,8.4-61.5c0.7-1,1.5-1.6,2.3-1.8c7.3-1.6,29.4,0.2,46.1,3.1c4.5,0.8,8,4.4,8.6,9
		l7.6,28.4"/>
	<path class="st1" d="M277,121"/>
	<g>
		<path class="st3" d="M800.9-294.6c11.9,4.1,24.3,6.3,36.8,6.7c7.5-4.8,13.1-13.1,14.5-20.5c2.3-12.5-7-22.1-23-25.4
			c-16.2-2.5-32.4,2.5-34.6,15C793.2-311.5,795.5-301.8,800.9-294.6z"/>
		<path class="st3" d="M818.5-334c0,0-10,4.5-11.9,15c-1.9,10.4,2.4,25.8,2.4,25.8"/>
		<path class="st3" d="M819.3-291.3c0,0-6.5-15.1-0.6-31.8c3.4-9.6,3.8-9.5,3.8-9.5"/>
		<path class="st3" d="M830.9-289.2c0,0,14.2-8.2,11.8-25.8c-2.6-18.7-17.9-18.5-17.9-18.5s8.9,7.2,8.8,18.1
			c-0.2,12.7-8.8,25.1-8.8,25.1"/>
	</g>
	<path class="st1" d="M277,121c0,0-57.7,9.3-61,12c-17.3,14-33.7,58-37,72.7c-3.3,14.7-4,46.7-4,46.7"/>
	<path class="st1" d="M277.6,114.3c-2.5,4.8-11.5,8.7-20.2,8.7c-8.7,0-14.2-6.4-12.4-14.3s10.9-11.8,20.2-8.7
		C274.5,103.2,280,109.6,277.6,114.3z"/>
	<path class="st1" d="M380,251c0,0,17.8-14.5,34.3-22c28.7-13,73.7,13,73.7,13"/>
	<path class="st1" d="M487.3,241.2c2.5-0.9,5-1.7,7-2.2c8-2,44-1.3,44-1.3"/>
	<line class="st1" x1="66.8" y1="223.2" x2="74.3" y2="223"/>
	<line class="st1" x1="103" y1="225.2" x2="120.3" y2="230.3"/>
	<line class="st1" x1="155.7" y1="233" x2="176.3" y2="226.3"/>
	<polyline class="st1" points="417,109.7 461,117.7 481,115 538.3,120.3 	"/>
	<path class="st1" d="M-28.3,247.7c0,0,14.7-6.7,22.7-8.7s23.3-1.3,23.3-1.3"/>
	<path class="st1" d="M-83,109.7l44,8l20-2.7l57.3,5.3L83,109.7c0,0,86.8-0.9,100,15.3s20,23,20,23"/>
	<path class="st1" d="M512.3,333.7c-11.3-1.3-69.3,4.7-83.3,26.7s-17.3,77.3-17.3,77.3l-5.3,71.3"/>
	<path class="st1" d="M71.5,397c-2.6-22.2-7.7-46.3-17.5-53.5c-13.1-9.8-41.7-9.8-41.7-9.8C1,332.3-57,338.3-71,360.3
		s-17.3,77.3-17.3,77.3l-5.3,71.3"/>
	<path class="st1" d="M415.2-93.3c-2.6,16.8-3.5,31-3.5,31L406.3,9c0,0-0.7,28.7-0.7,42.7s0.7,18,0.7,18"/>
	<path class="st1" d="M59.7,442.3c0,0-30,6-26,16s25.3,12,34,15.3C76.3,477,99,460.3,99,460.3s12-20.7,2.7-22.7
		S59.7,442.3,59.7,442.3z"/>
	<path class="st1" d="M132.3,372.3c0,0-1.5-27.8,9.4-36.3c11-8.6,30.3-20.2,35.5-22.1s35.5-7.4,69.7,4.3c34.2,11.6,61.7,13,69,17.2
		c11,6.3,18.4,41.6,18.4,41.6"/>
	<path class="st1" d="M253,389c0,0,37.3-14.8,52-15.3c19.3-0.7,34.7,6,34.7,6l78.7,6"/>
	<path class="st1" d="M175,399l16-16c0,0,31-16,44-11s36,46,36,46"/>
	<path class="st1" d="M225.5,441c0,0,75.5-36,89.5-41s52-6,70-6s31,3,31,3"/>
	<path class="st1" d="M393,454.8c11.2-1,17-1.8,17-1.8"/>
	<path class="st1" d="M223,450.5c0,0,68.3-1.5,95,13.5"/>
	<polyline class="st3" points="87,-554 122,-482 130,-450 123,-393 78,-327 58,-303 	"/>
	<path class="st1" d="M124.6,52.5c3.7,8.1-1.6,18.1-11.8,22.4s-24.6,2.2-32.2-4.4c-7.6-6.7-2.3-16.7,11.8-22.4
		S120.9,44.4,124.6,52.5z"/>
	<path class="st1" d="M101,45c0,0-2-31,13-36s31-12,31-12"/>
	<path class="st1" d="M83,109.7c0,0,3-27.7,14-29.7s35-14,49-13s142,7,142,7"/>
	<ellipse transform="matrix(0.8321 -0.5547 0.5547 0.8321 -30.313 62.9089)" class="st1" cx="88.7" cy="81.5" rx="4.5" ry="3.1"/>
	
		<ellipse transform="matrix(0.9976 -6.876723e-02 6.876723e-02 0.9976 -32.5048 4.3119)" class="st1" cx="46.4" cy="474.3" rx="9" ry="5.7"/>
	<path class="st1" d="M324.6,462.2c-20.6,8.6-50.4,17-55.6,24.4c-5.1,7.4-3.8,19.8,0,32.1c3.8,12.4,24.3,34.6,65.3,33.4
		s70.4-39.6,71.7-58.1c1.3-18.5-52.7-32-52.7-32C344,460.3,332.9,458.7,324.6,462.2z"/>
	<path class="st1" d="M324.6-37.8c-20.6,8.6-50.4,17-55.6,24.4c-5.1,7.4-3.8,19.8,0,32.1s24.3,34.6,65.3,33.4
		c41-1.2,70.4-39.6,71.7-58.1c1.3-18.5-55.8-30.5-55.8-30.5C342.4-40.8,332.9-41.3,324.6-37.8z"/>
	<path class="st1" d="M101,545c0,0-2-31,13-36s37-14,37-14"/>
	<path class="st4" d="M-28,184c0,0,36-36,57-38s83,12,89,33s8,48,8,48"/>
	<path class="st4" d="M626,227c0,0-2-27-8-48s-68-35-89-33s-57,38-57,38l-17,16"/>
	<path class="st1" d="M67.7,473.7c0,0-24.7,6.3-36.7,15.3S5,527,5,527"/>
	<path class="st1" d="M67.7-26.3C67.7-26.3,43-20,31-11S5,27,5,27L-7,57"/>
	<path class="st1" d="M567.7-26.3c0,0-24.7,6.3-36.7,15.3s-26,38-26,38l-12,30c0,0-20,23-21,37s-1,21-1,21"/>
	<path class="st1" d="M471,111c0,3.3-2.7,6-6,6s-6-2.7-6-6s4.7-6,8-6S471,107.7,471,111z"/>
	<path class="st1" d="M359,372.3c-0.3,4.9-5.4,8.5-11.5,7.9c-6.1-0.5-12.6-5.2-14.6-10.4c-2-5.2,3.2-8.7,11.5-7.9
		C352.7,362.7,359.2,367.4,359,372.3z"/>
	<path class="st1" d="M260.1,380.6c-0.3,4.6-3.2,8.2-6.4,7.9c-3.2-0.3-6.5-4.4-7.4-9.3c-0.9-4.8,2-8.3,6.4-7.9
		C257.1,371.8,260.4,375.9,260.1,380.6z"/>
	<path class="st1" d="M366.7,464.9c0,0,23.9,3.7,24.9-6.6c1-10.3-13.5-18.7-18.5-24.4c-4.9-5.7-27.7,2.5-27.7,2.5
		s-16.7,15.2-10.7,19.9C340.6,460.9,366.7,464.9,366.7,464.9z"/>
	<path class="st1" d="M350.8,420.8c4.7-0.2,8.6,2.2,8.7,5.5c0.1,3.3-3.7,7.1-8.5,8.6c-4.8,1.5-8.7-1-8.7-5.5
		C342.3,424.9,346,421,350.8,420.8z"/>
	<path class="st1" d="M354,416c0,2.8-1.8,5-4,5s-4-2.2-4-5s3.1-5,5.3-5S354,413.2,354,416z"/>
	<path class="st1" d="M488,242c0,0,3,9,2,22s-18,28-18,28l-45,1"/>
	<path class="st1" d="M474.9,290.1c0.8-3.6,5.6-5.5,10.8-4.4c5.2,1.1,8.8,4.9,8,8.5s-8.8,4.8-14,3.7S474.2,293.7,474.9,290.1z"/>
	<path class="st1" d="M83,401.7c1.1,4.8-2.9,8.3-8.8,7.8c-6-0.5-10.6-2.6-10.3-4.8c0.3-2.2,4.2-5.7,8.8-7.8
		C77.3,394.7,81.9,396.9,83,401.7z"/>
	<path class="st1" d="M87.7,421.7c0,5.6-2,10.8-5.2,14.3c-2.7,2.7-6.1,4.3-10,4.3c-8.4,0-15.6-5-16.1-11.2c-0.2-2.4,0.7-5,2.4-7.5
		c2.7-4.3,7.4-8.6,12.8-11.1C80.5,406.4,87.7,411.4,87.7,421.7z"/>
	<path class="st1" d="M173,494l-21,0.2L139,507l-7,17c0,0,6,1,23-9c9.6-5.7,21.6-18.3,26-21.5"/>
	<path class="st1" d="M173-6l-21,0.2L139,7l-7,17c0,0,6,1,23-9c9.6-5.7,21.6-18.3,26-21.5"/>
</g>
<g id="Layer_2" class="st5">
	<path class="st6" d="M-118-118v736h736v-736H-118z M499.5,499.5H0.5V0.5h499V499.5z"/>
</g>
</svg>
